# xmcd
#
# Track frame offsets:
#	150
#	23717
#	39577
#	60718
#	83753
#	100035
#	123507
#	141105
#	160071
#	182534
#	202859
#	220971
#	242791
#	262915
#	279623
#	299177
#
# Disc length: 4286 seconds
#
# Revision: 0
# Processed by: cddbd v1.5.2PL0 Copyright (c) Steve Scherf et al.
# Submitted via: dBpowerAMP V4.0
#
DISCID=e610bc10
DTITLE=Renegade - Renegade and Lost Angels
DYEAR=2006
DGENRE=Heavy Metal
TTITLE0=Dragonslayer (burn in hell)
TTITLE1=Kids in leather
TTITLE2=Give me some shocks
TTITLE3=Broken bones
TTITLE4=Renegade
TTITLE5=Nights
TTITLE6=Fire
TTITLE7=Have some drinks
TTITLE8=Aiming high
TTITLE9=Young girl in love
TTITLE10=Bang your head
TTITLE11=Hold on
TTITLE12=Let's dance
TTITLE13=Lost angels
TTITLE14=Heart attack
TTITLE15=In union
EXTD=
EXTT0=
EXTT1=
EXTT2=
EXTT3=
EXTT4=
EXTT5=
EXTT6=
EXTT7=
EXTT8=
EXTT9=
EXTT10=
EXTT11=
EXTT12=
EXTT13=
EXTT14=
EXTT15=
PLAYORDER=
